<?xml version="1.0" encoding="utf-8"?>
<!-- Generator: Adobe Illustrator 16.0.0, SVG Export Plug-In . SVG Version: 6.00 Build 0)  -->
<!DOCTYPE svg PUBLIC "-//W3C//DTD SVG 1.1//EN" "http://www.w3.org/Graphics/SVG/1.1/DTD/svg11.dtd">
<svg version="1.1" id="图层_1" xmlns="http://www.w3.org/2000/svg" xmlns:xlink="http://www.w3.org/1999/xlink" x="0px" y="0px"
	 width="1024px" height="1024px" viewBox="0 0 1024 1024" enable-background="new 0 0 1024 1024" xml:space="preserve">
<g>
	<rect x="2423.356" y="-65.299" fill="#2CADFF" width="373.907" height="46.801"/>
	<polygon fill="#2CADFF" points="2749.607,215.865 2468.808,215.865 2468.808,-42.631 2492.207,-42.631 2492.207,192.467 
		2726.209,192.467 2726.209,-41.9 2749.607,-41.9 	"/>
	<rect x="2515.974" y="29.03" fill="#2CADFF" width="23.4" height="116.64"/>
	<rect x="2680.504" y="29.03" fill="#2CADFF" width="23.4" height="116.64"/>
	<rect x="2586.174" y="29.03" fill="#2CADFF" width="46.8" height="116.64"/>
	<polygon fill="#2CADFF" points="2680.504,-63.836 2657.105,-63.836 2657.105,-111.734 2563.138,-111.734 2563.138,-64.59 
		2539.739,-64.59 2539.739,-135.133 2680.504,-135.133 	"/>
</g>
<g>
	<path fill="#2CADFF" d="M-979.974-42.015c0,0,56.673-105.759,151.065-105.759c94.427,0,151.05,105.759,151.05,105.759
		s-56.623,105.709-151.05,105.709C-923.301,63.694-979.974-42.015-979.974-42.015"/>
	<path fill="#FFFFFF" d="M-828.462,14.077c-31.319,0-56.799-25.489-56.799-56.803c0-31.324,25.48-56.804,56.799-56.804
		c31.323,0,56.803,25.479,56.803,56.804C-771.66-11.413-797.139,14.077-828.462,14.077z M-828.462-74.801
		c-17.682,0-32.071,14.393-32.071,32.075c0,17.682,14.389,32.065,32.071,32.065c17.686,0,32.07-14.384,32.07-32.065
		C-796.392-60.409-810.777-74.801-828.462-74.801z"/>
</g>
<g>
	<path fill="#2CADFF" d="M813.359,897.058H331.528c-45.035,0-81.678-36.634-81.678-81.68V333.56
		c0-45.046,36.643-81.678,81.678-81.678h481.831c45.037,0,81.676,36.632,81.676,81.678v481.818
		C895.035,860.424,858.396,897.058,813.359,897.058z M331.528,305.088c-15.693,0-28.471,12.777-28.471,28.472v481.818
		c0,15.695,12.777,28.471,28.471,28.471h481.831c15.694,0,28.459-12.775,28.459-28.471V333.56c0-15.694-12.765-28.472-28.459-28.472
		H331.528z"/>
	<path fill="#2CADFF" d="M201.071,731.141h-66.508V222.697c0-48.695,39.622-88.328,88.328-88.328h481.831v66.508H222.891
		c-12.032,0-21.82,9.798-21.82,21.82V731.141z"/>
	<rect x="411.708" y="548.967" fill="#2CADFF" width="310.387" height="53.228"/>
	<rect x="545.145" y="420.377" fill="#2CADFF" width="53.217" height="310.406"/>
</g>
<rect x="1789.121" y="-52.986" fill="#A8A8A8" width="47.146" height="3"/>
<path fill="#2CADFF" d="M1809.163-11.912h-20v-32.426h20V-11.912z M1791.163-13.912h16v-28.426h-16V-13.912z"/>
<rect x="1817.163" y="-44.087" fill="#2CADFF" width="18" height="50.833"/>
<path fill="#2CADFF" d="M2024.895,77.943h-18.732V54.696h18.732V77.943z M2008.162,75.943h14.732V56.696h-14.732V75.943z"/>
<rect x="2029.262" y="54.714" fill="#2CADFF" width="16.733" height="35.499"/>
<rect x="1999.787" y="5.246" fill="#A8A8A8" width="47.146" height="3"/>
<rect x="1797.695" y="52.756" fill="#A8A8A8" width="3" height="10.103"/>
<rect x="1824.653" y="46.256" fill="#A8A8A8" width="3" height="63.5"/>
<rect x="1797.695" y="93.423" fill="#A8A8A8" width="3" height="10.104"/>
<path fill="#2CADFF" d="M2046.891-0.402h-20v-32.426h20V-0.402z M2028.891-2.402h16v-28.426h-16V-2.402z"/>
<rect x="2000.891" y="-51.486" fill="#2CADFF" width="18" height="50.833"/>
<rect x="2109.738" y="-45.942" fill="#A8A8A8" width="3" height="47.146"/>
<path fill="#2CADFF" d="M2150.813-25.901h-32.426v-20h32.426V-25.901z M2120.387-27.901h28.426v-16h-28.426V-27.901z"/>
<rect x="2118.638" y="-17.9" fill="#2CADFF" width="50.833" height="18"/>
<rect x="2379.971" y="-45.942" fill="#A8A8A8" width="3" height="47.146"/>
<path fill="#4697CC" d="M2374.322,1.432h-32.426v-20h32.426V1.432z M2343.896-0.568h28.426v-16h-28.426V-0.568z"/>
<rect x="2323.238" y="-45.733" fill="#2CADFF" width="50.833" height="18"/>
<rect x="1908.705" y="-24.319" fill="#A8A8A8" width="32.458" height="3"/>
<rect x="1884.996" y="-24.319" fill="#A8A8A8" width="6.167" height="3"/>
<path fill="#2CADFF" d="M1910.163-3.994h-20v-37.714h20V-3.994z M1892.163-5.994h16v-33.714h-16V-5.994z"/>
<rect x="1918.163" y="-52.921" fill="#2CADFF" width="18" height="59.667"/>
<rect x="2243.312" y="-51.17" fill="#A8A8A8" width="3" height="32.457"/>
<rect x="2243.312" y="-1.17" fill="#A8A8A8" width="3" height="6.166"/>
<path fill="#2CADFF" d="M2263.7-0.17h-37.714v-20h37.714V-0.17z M2227.986-2.17h33.714v-16h-33.714V-2.17z"/>
<rect x="2215.246" y="-46.17" fill="#2CADFF" width="59.667" height="18"/>
<path fill="#2CADFF" d="M1809.163,94.428h-20V62.002h20V94.428z M1791.163,92.428h16V64.002h-16V92.428z"/>
<rect x="1817.163" y="52.913" fill="#2CADFF" width="18" height="50.833"/>
<rect x="1933.81" y="63.038" fill="#A8A8A8" width="10.103" height="3"/>
<rect x="1886.912" y="89.996" fill="#A8A8A8" width="63.5" height="3"/>
<rect x="1893.142" y="63.038" fill="#A8A8A8" width="10.104" height="3"/>
<path fill="#2CADFF" d="M1934.666,74.506h-32.426v-20h32.426V74.506z M1904.24,72.506h28.426v-16h-28.426V72.506z"/>
<rect x="1892.922" y="82.506" fill="#2CADFF" width="50.833" height="18"/>
<polygon fill="#A8A8A8" points="2046.413,101.173 1999.413,101.173 1999.413,54.173 2002.413,54.173 2002.413,98.173 
	2046.413,98.173 "/>
</svg>
